<?xml version="1.0" standalone="no"?>
<!DOCTYPE svg PUBLIC "-//W3C//DTD SVG 20010904//EN"
 "http://www.w3.org/TR/2001/REC-SVG-20010904/DTD/svg10.dtd">
<svg version="1.0" xmlns="http://www.w3.org/2000/svg"
 width="500.000000pt" height="500.000000pt" viewBox="0 0 500.000000 500.000000"
 preserveAspectRatio="xMidYMid meet">
<metadata>
Created by potrace 1.11, written by Peter Selinger 2001-2013
</metadata>
<g transform="translate(0.000000,500.000000) scale(0.100000,-0.100000)"
fill="#000000" stroke="none">
<path d="M27 4862 l-27 -28 0 -1097 c0 -782 3 -1103 11 -1120 20 -45 41 -47
394 -47 l334 0 28 24 28 24 1 461 c0 254 3 463 5 465 2 3 25 -23 51 -57 62
-82 112 -146 303 -389 327 -416 387 -490 418 -508 30 -19 53 -20 338 -20 l306
0 27 25 c14 13 27 32 27 42 1 10 2 502 3 1093 3 1135 3 1125 -42 1149 -14 7
-136 11 -360 11 l-339 0 -27 -25 c-19 -17 -26 -35 -27 -62 0 -21 -1 -248 -1
-506 -1 -428 -2 -465 -17 -445 -39 57 -684 946 -705 974 -48 62 -62 64 -398
64 l-304 0 -27 -28z"/>
<path d="M2452 4870 c-39 -36 -29 -67 79 -247 56 -92 109 -181 119 -198 9 -16
152 -253 316 -525 l299 -495 2 -385 c1 -269 5 -391 14 -406 22 -42 43 -44 439
-44 l379 0 28 24 28 24 0 388 0 389 66 110 c36 61 164 272 284 470 462 763
495 819 495 847 0 15 -10 36 -22 48 -22 20 -30 21 -415 18 -378 -3 -393 -4
-420 -24 -17 -12 -106 -153 -226 -355 -109 -184 -201 -335 -205 -336 -4 -2
-92 147 -196 330 -104 182 -199 340 -210 351 -12 10 -31 22 -44 27 -13 5 -195
9 -406 9 -371 0 -383 -1 -404 -20z"/>
<path d="M1059 2426 c-2 -2 -33 -7 -69 -10 -150 -16 -346 -70 -477 -132 -276
-131 -428 -323 -500 -629 -10 -45 -13 -693 -3 -750 4 -27 11 -66 15 -85 11
-60 51 -166 89 -235 142 -252 479 -430 896 -472 98 -10 374 -10 470 0 266 28
464 93 645 212 199 131 310 305 361 565 9 48 17 534 9 576 -13 70 0 69 -559
70 -276 0 -511 -3 -523 -7 -50 -18 -55 -44 -57 -261 -1 -212 5 -247 46 -269
11 -6 71 -10 134 -10 111 0 114 -1 114 -23 0 -25 -46 -102 -76 -127 -71 -59
-148 -82 -282 -85 -207 -4 -341 60 -383 183 -14 42 -19 615 -6 666 12 44 77
108 137 135 79 35 206 51 300 37 89 -13 127 -29 199 -84 42 -32 64 -41 95 -42
23 0 209 -1 414 -1 446 0 431 -5 422 112 -2 38 -56 148 -100 205 -143 186
-341 320 -576 390 -169 50 -329 72 -540 73 -106 0 -193 -1 -195 -2z"/>
<path d="M2578 2414 c-15 -8 -31 -28 -37 -46 -14 -44 -14 -553 0 -596 19 -58
34 -61 350 -61 156 0 320 0 364 0 l80 -1 0 -775 0 -775 28 -27 27 -28 363 0
c199 -1 375 3 390 8 59 19 57 -5 57 832 l0 765 53 0 c28 1 196 1 371 2 l320 0
28 28 28 28 0 297 c0 184 -4 304 -10 316 -27 49 15 47 -1225 47 -973 0 -1164
-2 -1187 -14z"/>
</g>
</svg>
